<mxfile host="app.diagrams.net" modified="2024-06-26T12:05:43.457Z" agent="Mozilla/5.0 (Macintosh; Intel Mac OS X 10_15_7) AppleWebKit/537.36 (KHTML, like Gecko) Chrome/126.0.0.0 Safari/537.36" etag="0ueVx1IQROT2CkZdf7dh" version="24.6.3" type="device">
  <diagram name="Page-1" id="W0coKdOubhpi5GPjbxpj">
    <mxGraphModel dx="1314" dy="794" grid="1" gridSize="10" guides="1" tooltips="1" connect="1" arrows="1" fold="1" page="1" pageScale="1" pageWidth="1100" pageHeight="850" math="0" shadow="0">
      <root>
        <mxCell id="0" />
        <mxCell id="1" parent="0" />
        <mxCell id="EY37sZX3MRK__u9z2A4--1" value="&lt;b style=&quot;font-size: 14px;&quot;&gt;Minio&lt;/b&gt;&lt;div style=&quot;font-size: 14px;&quot;&gt;(for object storage)&lt;/div&gt;" style="rounded=1;whiteSpace=wrap;html=1;fontSize=14;glass=0;" parent="1" vertex="1">
          <mxGeometry x="300" y="710" width="580" height="60" as="geometry" />
        </mxCell>
        <mxCell id="EY37sZX3MRK__u9z2A4--2" value="&lt;b style=&quot;font-size: 14px;&quot;&gt;Apache Iceberg&lt;/b&gt;&lt;div style=&quot;font-size: 14px;&quot;&gt;(high performance table format)&lt;/div&gt;" style="rounded=1;whiteSpace=wrap;html=1;fontSize=14;" parent="1" vertex="1">
          <mxGeometry x="300" y="630" width="410" height="60" as="geometry" />
        </mxCell>
        <mxCell id="EY37sZX3MRK__u9z2A4--3" value="&lt;b style=&quot;font-size: 14px;&quot;&gt;Tabular&lt;/b&gt;&lt;div style=&quot;font-size: 14px;&quot;&gt;(REST Catalog for Iceberg)&lt;/div&gt;" style="rounded=1;whiteSpace=wrap;html=1;fontSize=14;" parent="1" vertex="1">
          <mxGeometry x="730" y="630" width="230" height="60" as="geometry" />
        </mxCell>
        <mxCell id="jPCkQiEUjlUwYEobX-Ye-1" value="LIMS" style="shape=cylinder3;whiteSpace=wrap;html=1;boundedLbl=1;backgroundOutline=1;size=15;fontSize=14;fontStyle=1" vertex="1" parent="1">
          <mxGeometry x="900" y="710" width="60" height="60" as="geometry" />
        </mxCell>
        <mxCell id="jPCkQiEUjlUwYEobX-Ye-2" value="&lt;b style=&quot;font-size: 14px;&quot;&gt;DataHub&lt;/b&gt;&lt;div style=&quot;font-size: 14px;&quot;&gt;(data catalog and observability)&lt;/div&gt;" style="rounded=1;whiteSpace=wrap;html=1;horizontal=0;fontSize=14;dashed=1;" vertex="1" parent="1">
          <mxGeometry x="990" y="470" width="60" height="300" as="geometry" />
        </mxCell>
        <mxCell id="jPCkQiEUjlUwYEobX-Ye-3" value="&lt;b style=&quot;font-size: 14px;&quot;&gt;Trino&lt;/b&gt;&lt;div style=&quot;font-size: 14px;&quot;&gt;(distributed SQL query engine)&lt;/div&gt;" style="rounded=1;whiteSpace=wrap;html=1;fontSize=14;" vertex="1" parent="1">
          <mxGeometry x="520" y="550" width="440" height="60" as="geometry" />
        </mxCell>
        <mxCell id="jPCkQiEUjlUwYEobX-Ye-5" value="&lt;b style=&quot;font-size: 14px;&quot;&gt;Postgres&lt;/b&gt;&lt;div style=&quot;font-size: 14px;&quot;&gt;(serving production data)&lt;/div&gt;" style="rounded=1;whiteSpace=wrap;html=1;fontSize=14;dashed=1;" vertex="1" parent="1">
          <mxGeometry x="300" y="550" width="190" height="60" as="geometry" />
        </mxCell>
        <mxCell id="jPCkQiEUjlUwYEobX-Ye-11" value="&lt;b style=&quot;font-size: 14px;&quot;&gt;Dagster&lt;/b&gt;&lt;div style=&quot;font-size: 14px;&quot;&gt;(orchestration)&lt;/div&gt;" style="rounded=1;whiteSpace=wrap;html=1;horizontal=0;fontSize=14;" vertex="1" parent="1">
          <mxGeometry x="210" y="470" width="60" height="300" as="geometry" />
        </mxCell>
        <mxCell id="jPCkQiEUjlUwYEobX-Ye-12" value="&lt;b style=&quot;font-size: 14px;&quot;&gt;Cube.dev&lt;/b&gt;&lt;div style=&quot;font-size: 14px;&quot;&gt;(analytical data model, metrics, and dimensions)&lt;/div&gt;" style="rounded=1;whiteSpace=wrap;html=1;fontSize=14;dashed=1;" vertex="1" parent="1">
          <mxGeometry x="210" y="358" width="840" height="60" as="geometry" />
        </mxCell>
        <mxCell id="jPCkQiEUjlUwYEobX-Ye-13" value="&lt;b&gt;Superset / Power BI&lt;/b&gt;&lt;div style=&quot;font-size: 14px;&quot;&gt;(data visualization and dashboard)&lt;/div&gt;" style="rounded=1;whiteSpace=wrap;html=1;fontSize=14;" vertex="1" parent="1">
          <mxGeometry x="210" y="278" width="330" height="60" as="geometry" />
        </mxCell>
        <mxCell id="jPCkQiEUjlUwYEobX-Ye-14" value="&lt;b&gt;AG Grid + Chart&lt;/b&gt;&lt;div style=&quot;font-size: 14px;&quot;&gt;(self-service data exploration)&lt;/div&gt;" style="rounded=1;whiteSpace=wrap;html=1;fontSize=14;" vertex="1" parent="1">
          <mxGeometry x="560" y="278" width="290" height="60" as="geometry" />
        </mxCell>
        <mxCell id="jPCkQiEUjlUwYEobX-Ye-16" value="&lt;b&gt;Jupyter Notebook&lt;/b&gt;&lt;div style=&quot;font-size: 14px;&quot;&gt;(notebook environment)&lt;/div&gt;" style="rounded=1;whiteSpace=wrap;html=1;dashed=1;fontSize=14;" vertex="1" parent="1">
          <mxGeometry x="870" y="278" width="180" height="60" as="geometry" />
        </mxCell>
        <mxCell id="jPCkQiEUjlUwYEobX-Ye-17" value="Data Management" style="text;html=1;align=center;verticalAlign=middle;whiteSpace=wrap;rounded=0;fontSize=20;" vertex="1" parent="1">
          <mxGeometry x="83" y="610" width="60" height="30" as="geometry" />
        </mxCell>
        <mxCell id="jPCkQiEUjlUwYEobX-Ye-18" value="&lt;b style=&quot;font-size: 14px;&quot;&gt;Polars + PyIceberg + Arrow&lt;/b&gt;&lt;div style=&quot;font-size: 14px;&quot;&gt;(data transformation and load)&lt;/div&gt;" style="rounded=1;whiteSpace=wrap;html=1;fontSize=14;" vertex="1" parent="1">
          <mxGeometry x="300" y="470" width="440" height="60" as="geometry" />
        </mxCell>
        <mxCell id="jPCkQiEUjlUwYEobX-Ye-19" value="&lt;b&gt;Apache Spark&lt;/b&gt;&lt;br&gt;&lt;div style=&quot;font-size: 14px;&quot;&gt;(distributed compute)&lt;/div&gt;" style="rounded=1;whiteSpace=wrap;html=1;fontSize=14;dashed=1;" vertex="1" parent="1">
          <mxGeometry x="760" y="470" width="200" height="60" as="geometry" />
        </mxCell>
        <mxCell id="jPCkQiEUjlUwYEobX-Ye-20" value="" style="endArrow=none;dashed=1;html=1;rounded=0;strokeWidth=2;" edge="1" parent="1">
          <mxGeometry width="50" height="50" relative="1" as="geometry">
            <mxPoint x="40" y="443" as="sourcePoint" />
            <mxPoint x="1080" y="443" as="targetPoint" />
          </mxGeometry>
        </mxCell>
        <mxCell id="jPCkQiEUjlUwYEobX-Ye-21" value="Analytics" style="text;html=1;align=center;verticalAlign=middle;whiteSpace=wrap;rounded=0;fontSize=20;" vertex="1" parent="1">
          <mxGeometry x="83" y="328" width="60" height="30" as="geometry" />
        </mxCell>
      </root>
    </mxGraphModel>
  </diagram>
</mxfile>
